<svg width="128" height="128" viewBox="0 0 128 128" fill="none" xmlns="http://www.w3.org/2000/svg">
  <rect x="8" y="8" width="112" height="112" rx="28" fill="#0F172A"/>
  <rect x="24" y="24" width="80" height="80" rx="20" fill="#E0F2FE"/>
  <path d="M44 45H63C73.5 45 80.5 51.5 80.5 64C80.5 76.5 73.5 83 63 83H44V45ZM54 54V74H62C66.8 74 70 70.7 70 64C70 57.3 66.8 54 62 54H54Z" fill="#0F172A"/>
  <path d="M86 45H65.5V83H86.5C95 83 101 78.5 101 71.6C101 66.7 98 63.3 93.5 62.2V61.8C96.9 60.4 99.1 57.5 99.1 53.8C99.1 48.3 94.2 45 86 45ZM75.2 52.7H84.8C87.9 52.7 89.9 54.1 89.9 56.8C89.9 59.7 87.8 61.2 84.5 61.2H75.2V52.7ZM75.2 68.2H85.6C89.3 68.2 91.6 69.8 91.6 72.8C91.6 75.8 89.3 77.4 85.3 77.4H75.2V68.2Z" fill="#0F172A"/>
</svg>
